# xmcd
#
# Track frame offsets:
#	150
#	36129
#	54064
#	93360
#	124306
#	138706
#	161908
#	191027
#	206381
#	235063
#	260086
#	276250
#	311602
#
# Disc length: 4551 seconds
# Revision: 0
# Processed by: cddbd v1.5.2PL0 Copyright (c) Steve Scherf et al.
# Submitted via: dBpowerAMP V12.0
#
DISCID=be11c50d
DTITLE=Shakira - Underneath Your Clothes - Te Dejo Madrid
DYEAR=2002
DGENRE=House
TTITLE0=Te Dejo Madrid [Pablo Flores Club Mix]
TTITLE1=Te Dejo Madrid [Pablo Flores Radio Edit]
TTITLE2=Te Dejo Madrid [Pablo Flores Dub Mix]
TTITLE3=Underneath Your Clothes [Thunderpuss Club Mix]
TTITLE4=Underneath Your Clothes [Thunderpuss Radio Edit]
TTITLE5=Underneath Your Clothes [Thunderpuss Tribe-A-Pella]
TTITLE6=Underneath Your Clothes [Thunderpuss ThunderDUB]
TTITLE7=Underneath Your Clothes [Thunderpuss Club Radio Edit]
TTITLE8=Underneath Your Clothes [The Xquizit DJ X D&B Vocal Remix]
TTITLE9=Underneath Your Clothes [The Xquizit DJ X D&B Dub Mix]
TTITLE10=Underneath Your Clothes [Lester Mendez Club Radio Edit]
TTITLE11=Underneath Your Clothes [Lester Mendez Club Mix]
TTITLE12=Underneath Your Clothes [Lester Mendez Dub Mix]
EXTD=
EXTT0=
EXTT1=
EXTT2=
EXTT3=
EXTT4=
EXTT5=
EXTT6=
EXTT7=
EXTT8=
EXTT9=
EXTT10=
EXTT11=
EXTT12=
PLAYORDER=
